<?xml version="1.0" standalone="no"?><!DOCTYPE svg PUBLIC "-//W3C//DTD SVG 1.1//EN" "http://www.w3.org/Graphics/SVG/1.1/DTD/svg11.dtd"><svg class="icon" width="200px" height="200.00px" viewBox="0 0 1024 1024" version="1.1" xmlns="http://www.w3.org/2000/svg"><path fill="#000000" d="M687.5 443H635.4c-2.8 0-5.1-4.1-5.1-9.2l-0.5-93c0-5.1 2.3-9.3 5.1-9.3 4.5 0 6.8-9.8 3.6-15.7l-58.1-68.2c-4.1-7.8-10.9-7.8-15 0l-58.1 68.2c-3.1 5.9-0.8 15.7 3.6 15.7 2.8 0 5.1 4.1 5.1 9.2v90.6c0 5.1-2.3 9.2-5.1 9.2h-71.6c-2.8 0-5.1-4.1-5.1-9.2V330.9c0-5.1-2.3-9.2-5.1-9.2h-92.8c-2.8 0-5.1 4.1-5.1 9.2v396c0 5.1 2.3 9.2 5.1 9.2h351.1c2.8 0 5.1-4.1 5.1-9.2V452.2c0.1-5.1-2.2-9.2-5-9.2zM394.1 661.1c0 6.4-3.2 11.5-7.1 11.5h-17.6c-3.9 0-7.1-5.2-7.1-11.5v-28.6c0-6.4 3.2-11.5 7.1-11.5H387c3.9 0 7.1 5.2 7.1 11.5v28.6z m0-65.5c0 6.4-3.2 11.5-7.1 11.5h-17.6c-3.9 0-7.1-5.2-7.1-11.5V567c0-6.4 3.2-11.5 7.1-11.5H387c3.9 0 7.1 5.2 7.1 11.5v28.6z m0-65.5c0 6.4-3.2 11.5-7.1 11.5h-17.6c-3.9 0-7.1-5.2-7.1-11.5v-28.6c0-6.4 3.2-11.5 7.1-11.5H387c3.9 0 7.1 5.2 7.1 11.5v28.6z m0-65.5c0 6.4-3.2 11.5-7.1 11.5h-17.6c-3.9 0-7.1-5.2-7.1-11.5V436c0-6.4 3.2-11.5 7.1-11.5H387c3.9 0 7.1 5.2 7.1 11.5v28.6z m0-65.5c0 6.4-3.2 11.5-7.1 11.5h-17.6c-3.9 0-7.1-5.2-7.1-11.5v-28.6c0-6.4 3.2-11.5 7.1-11.5H387c3.9 0 7.1 5.2 7.1 11.5v28.6z m206.7 1.7c0 6.8-5.5 12.4-12.4 12.4h-30.7c-6.8 0-12.4-5.5-12.4-12.4v-30.7c0-6.8 5.5-12.4 12.4-12.4h30.7c6.8 0 12.4 5.5 12.4 12.4v30.7zM759.2 776.8H264.8c-22.4 0-40.6-18.2-40.6-40.6s18.2-40.6 40.6-40.6h494.4c22.4 0 40.6 18.2 40.6 40.6s-18.2 40.6-40.6 40.6zM735.5 959h-447C165.3 959 65 858.7 65 735.5v-447C65 165.3 165.3 65 288.5 65h447C858.7 65 959 165.3 959 288.5v447C959 858.7 858.7 959 735.5 959z m-447-812.7c-78.4 0-142.2 63.8-142.2 142.2v447c0 78.4 63.8 142.2 142.2 142.2h447c78.4 0 142.2-63.8 142.2-142.2v-447c0-78.4-63.8-142.2-142.2-142.2h-447z" /></svg>